<svg width="100%" viewBox="0 0 380 440" xmlns="http://www.w3.org/2000/svg" role="img">
<title>נחלת דוד logo</title>
<desc>Decorative emblem for Mosdot Torah v'Chesed Nachalat David</desc>
<defs>
<radialGradient id="glow" cx="50%" cy="50%" r="60%">
<stop offset="0%" stop-color="#3a3a3a"/>
<stop offset="60%" stop-color="#1a1a1a"/>
<stop offset="100%" stop-color="#000000"/>
</radialGradient>
<linearGradient id="gold" x1="0%" y1="0%" x2="0%" y2="100%">
<stop offset="0%" stop-color="#e8c878"/>
<stop offset="50%" stop-color="#c9a558"/>
<stop offset="100%" stop-color="#8a6f33"/>
</linearGradient>
</defs>
<rect x="0" y="0" width="380" height="440" fill="url(#glow)"/>
<g opacity="0.18" fill="#6b5a3a" font-family="serif" font-weight="700">
<text x="40" y="40" font-size="22" text-anchor="middle">ך</text>
<text x="120" y="35" font-size="20">כָּמוֹךָ</text>
<text x="240" y="35" font-size="22">לְרֵעֲךָ</text>
<text x="340" y="35" font-size="22">וְאָהַבְתָּ</text>
<text x="20" y="90" font-size="28" font-weight="900">אֵין</text>
<text x="90" y="95" font-size="18">מִלְּבַדּוֹ.</text>
<text x="200" y="95" font-size="18">עוֹד</text>
<text x="260" y="95" font-size="18">מִלְּבַדּוֹ.</text>
<text x="30" y="145" font-size="17">לְעוֹלָם וָעֶד</text>
<text x="155" y="145" font-size="19">ה' מֶלֶךְ</text>
<text x="240" y="145" font-size="17">יִמְלֹךְ לְעוֹ</text>
<text x="40" y="395" font-size="17">לְעוֹלָם וָעֶד</text>
<text x="165" y="395" font-size="19">ה' מֶלֶךְ</text>
<text x="255" y="395" font-size="17">יִמְלֹךְ לְעוֹ</text>
<text x="20" y="425" font-size="26" font-weight="900">אֵין</text>
<text x="85" y="425" font-size="18">עוֹד</text>
<text x="145" y="425" font-size="18">מִלְּבַדּוֹ.</text>
<text x="260" y="425" font-size="22">לְרֵעֲךָ</text>
</g>
<g>
<ellipse cx="190" cy="210" rx="155" ry="170" fill="#2a2418" opacity="0.5"/>
<path d="M 190 55 C 215 55, 235 58, 252 68 C 265 60, 280 65, 290 78 C 305 88, 312 105, 313 122 C 322 135, 325 152, 322 170 C 326 185, 326 200, 322 215 C 326 235, 325 255, 320 270 C 322 285, 318 300, 308 312 C 305 328, 295 342, 280 350 C 270 360, 255 365, 240 363 C 225 370, 207 372, 190 370 C 173 372, 155 370, 140 363 C 125 365, 110 360, 100 350 C 85 342, 75 328, 72 312 C 62 300, 58 285, 60 270 C 55 255, 54 235, 58 215 C 54 200, 54 185, 58 170 C 55 152, 58 135, 67 122 C 68 105, 75 88, 90 78 C 100 65, 115 60, 128 68 C 145 58, 165 55, 190 55 Z" fill="url(#gold)" stroke="#5a4520" stroke-width="0.8"/>
<g fill="none" stroke="#3d2f15" stroke-width="0.6" opacity="0.7">
<circle cx="190" cy="210" r="135"/>
</g>
<g fill="#3d2f15" opacity="0.85">
<path d="M 130 80 q 5 -8 12 -4 q 6 4 2 10 q -3 4 -8 2"/>
<path d="M 155 70 q 5 -7 11 -3 q 5 4 1 9"/>
<path d="M 180 65 q 5 -6 10 -2 q 4 3 0 8"/>
<path d="M 205 65 q 5 -6 10 -2 q 4 3 0 8"/>
<path d="M 230 70 q 5 -7 11 -3 q 5 4 1 9"/>
<path d="M 255 80 q 5 -8 12 -4 q 6 4 2 10"/>
<path d="M 95 110 q -8 5 -4 12 q 4 6 10 2"/>
<path d="M 80 140 q -7 5 -3 11 q 4 5 9 1"/>
<path d="M 72 175 q -7 5 -3 11"/>
<path d="M 68 210 q -7 4 -3 10 q 4 5 9 1"/>
<path d="M 72 245 q -7 5 -3 11"/>
<path d="M 80 280 q -7 5 -3 11 q 4 5 9 1"/>
<path d="M 95 310 q -8 5 -4 12 q 4 6 10 2"/>
<path d="M 285 110 q 8 5 4 12 q -4 6 -10 2"/>
<path d="M 300 140 q 7 5 3 11 q -4 5 -9 1"/>
<path d="M 308 175 q 7 5 3 11"/>
<path d="M 312 210 q 7 4 3 10 q -4 5 -9 1"/>
<path d="M 308 245 q 7 5 3 11"/>
<path d="M 300 280 q 7 5 3 11 q -4 5 -9 1"/>
<path d="M 285 310 q 8 5 4 12 q -4 6 -10 2"/>
<path d="M 130 340 q 5 8 12 4 q 6 -4 2 -10"/>
<path d="M 155 350 q 5 7 11 3"/>
<path d="M 180 355 q 5 6 10 2"/>
<path d="M 205 355 q 5 6 10 2"/>
<path d="M 230 350 q 5 7 11 3"/>
<path d="M 255 340 q 5 8 12 4 q 6 -4 2 -10"/>
</g>
<circle cx="190" cy="210" r="115" fill="none" stroke="#8a6f33" stroke-width="1.2"/>
<circle cx="190" cy="210" r="112" fill="#0a0a0a"/>
<circle cx="190" cy="210" r="108" fill="#000000"/>
</g>
<text x="190" y="135" font-family="serif" font-size="11" fill="#d4b876" text-anchor="middle" font-weight="500">מוסדות תורה וחסד</text>
<g transform="translate(190, 155)">
<path d="M -14 0 L -14 8 L 0 5 L 14 8 L 14 0 L 0 -3 Z" fill="#e8c878" stroke="#8a6f33" stroke-width="0.6"/>
<line x1="0" y1="-3" x2="0" y2="5" stroke="#5a4520" stroke-width="0.8"/>
<line x1="-10" y1="0" x2="-3" y2="-1" stroke="#5a4520" stroke-width="0.4"/>
<line x1="-10" y1="2" x2="-3" y2="1" stroke="#5a4520" stroke-width="0.4"/>
<line x1="3" y1="-1" x2="10" y2="0" stroke="#5a4520" stroke-width="0.4"/>
<line x1="3" y1="1" x2="10" y2="2" stroke="#5a4520" stroke-width="0.4"/>
</g>
<text x="190" y="215" font-family="'David', 'Times New Roman', serif" font-size="54" font-weight="900" fill="#ffffff" text-anchor="middle" letter-spacing="2">נחלת</text>
<text x="190" y="265" font-family="'David', 'Times New Roman', serif" font-size="54" font-weight="900" fill="#ffffff" text-anchor="middle" letter-spacing="2">דוד</text>
<line x1="130" y1="280" x2="250" y2="280" stroke="#8a6f33" stroke-width="0.5"/>
<text x="190" y="296" font-family="serif" font-size="10" fill="#d4b876" text-anchor="middle">לעילוי נשמת</text>
<text x="190" y="310" font-family="serif" font-size="10" fill="#d4b876" text-anchor="middle">הרה"ג דוד עשור זצ"ל</text>
</svg>
